# xmcd
#
# Track frame offsets:
#	150
#	12750
#	29100
#	43225
#	61650
#	77550
#	91300
#	102037
#	115475
#	134775
#	146550
#	161100
#	178875
#	194375
#	211800
#	226350
#
# Disc length: 3201 seconds
#
# Revision: 1
# Processed by: cddbd v1.5.2PL0 Copyright (c) Steve Scherf et al.
# Submitted via: EZCDAudioConverter 1.6.1.1
#
DISCID=e30c7f10
DTITLE=未知演出者 - 鋼琴之愛01
DYEAR=1900
DGENRE=
TTITLE0=The god father
TTITLE1=Love story
TTITLE2=Unchained melody
TTITLE3=I don't knoe hoe to love him
TTITLE4=The sound of silence
TTITLE5=Scarborough fair
TTITLE6=Romeo and Julia
TTITLE7=Exodus出埃及記
TTITLE8=Sunrise Sunset
TTITLE9=River of no return
TTITLE10=Edelweise
TTITLE11=The way we were
TTITLE12=Evergreen
TTITLE13=My way
TTITLE14=You light up my life
TTITLE15=Moon river
EXTD=
EXTT0=
EXTT1=
EXTT2=
EXTT3=
EXTT4=
EXTT5=
EXTT6=
EXTT7=
EXTT8=
EXTT9=
EXTT10=
EXTT11=
EXTT12=
EXTT13=
EXTT14=
EXTT15=
PLAYORDER=
